<svg xmlns="http://www.w3.org/2000/svg" xmlns:xlink="http://www.w3.org/1999/xlink" version="1.1" id="Layer_1" x="0px" y="0px" width="100%" viewBox="0 0 512 512" enable-background="new 0 0 512 512" xml:space="preserve">
<path fill="#28263a" opacity="1.000000" stroke="none" d=" M1.000009,471.000000   C1.000000,328.643341 1.000000,186.286682 1.354839,43.406990   C2.360024,41.788349 3.228543,40.766567 3.628002,39.586067   C9.656337,21.770924 21.528065,9.833907 39.319397,3.703146   C40.693584,3.229611 41.779888,1.920656 43.000000,1.000000   C185.356659,1.000000 327.713318,1.000000 470.592834,1.354928   C472.211060,2.360594 473.232666,3.228394 474.412872,3.629528   C492.207672,9.677845 504.178772,21.515076 510.295929,39.320232   C510.768036,40.694298 512.078979,41.780167 513.000000,42.999996   C513.000000,185.356659 513.000000,327.713318 512.645081,470.592896   C511.639526,472.211304 510.770752,473.232910 510.370911,474.413361   C504.338287,492.224030 492.477142,504.171295 474.679871,510.296082   C473.305817,510.768951 472.219879,512.079041 471.000000,513.000000   C328.643341,513.000000 186.286682,513.000000 43.407005,512.645142   C41.788265,511.639984 40.766281,510.772278 39.585789,510.371796   C21.782436,504.331970 9.823093,492.482910 3.703024,474.680847   C3.230561,473.306549 1.920674,472.220184 1.000009,471.000000  M408.860962,163.981903   C410.461060,163.981903 412.061157,163.981903 413.631500,163.981903   C415.236176,158.704407 412.271027,155.743332 408.925598,152.224548   C397.999084,135.912903 387.118652,119.569839 376.059784,103.348427   C375.162140,102.031723 373.057953,100.826248 371.489044,100.793709   C361.164154,100.579544 350.829590,100.588509 340.505646,100.836266   C338.964874,100.873245 336.942841,102.187477 336.022827,103.518608   C324.330261,120.435783 312.748871,137.430710 301.278687,154.499588   C299.519196,157.117889 298.461273,160.207626 296.855743,163.542908   C311.890259,164.953873 315.232300,164.186279 325.559021,155.622269   C335.897186,147.048737 345.908539,138.081070 356.336731,129.049210   C357.325104,129.989487 358.570984,131.290817 359.934845,132.453857   C370.542175,141.499222 381.190826,150.496216 391.786835,159.554779   C396.526428,163.606674 401.948456,164.833435 408.860962,163.981903  M406.890442,403.000153   C409.476440,403.000153 412.062439,403.000153 414.634460,403.000153   C414.634460,397.167877 414.634460,391.838440 414.634460,386.464905   C411.507965,386.464905 408.730499,386.464905 405.118347,386.178040   C404.289032,386.110352 403.459137,386.049438 402.630524,385.974030   C386.152161,384.474487 380.453827,379.390839 377.411560,363.308228   C377.044952,361.370300 377.075989,359.339935 377.075897,357.352417   C377.072937,303.891968 377.089996,250.431534 377.103638,196.971100   C377.104065,195.221451 377.103668,193.471802 377.103668,191.688629   C353.324982,191.688629 330.240051,191.688629 307.098328,191.688629   C307.098328,197.225784 307.098328,202.473038 307.098328,207.767548   C311.478516,208.179169 315.603363,208.433395 319.689941,208.975739   C332.107391,210.623703 339.982666,219.411072 340.001434,231.962814   C340.066925,275.763611 340.044220,319.564606 339.991302,363.365448   C339.977936,374.436584 334.270111,382.069336 323.456757,384.497162   C316.915192,385.965912 310.097321,386.204102 303.122681,387.028351   C303.122681,392.032623 303.122681,397.274078 303.122681,402.608002   C303.654205,402.746674 304.112122,402.970917 304.569824,402.970490   C338.374573,402.940125 372.179321,402.891968 406.890442,403.000153  M78.557915,103.146378   C75.787712,103.146378 73.017509,103.146378 70.374443,103.146378   C70.374443,109.130676 70.374443,114.522057 70.374443,119.659630   C75.583748,120.021957 80.428513,120.122124 85.206337,120.739952   C95.515068,122.073013 102.400055,128.096619 104.558960,138.055054   C105.391975,141.897598 105.172066,146.001328 105.173988,149.986191   C105.205772,215.816788 105.200157,281.647400 105.189445,347.477997   C105.188553,352.977051 105.245461,358.482880 105.005646,363.973755   C104.552727,374.343719 98.017128,382.489960 87.969872,384.608978   C82.187080,385.828644 76.207504,386.115265 70.205444,386.835205   C70.205444,392.058899 70.205444,397.319611 70.205444,402.790100   C105.492027,402.790100 140.566452,402.790100 176.080261,402.790100   C176.080261,399.988403 176.080261,397.366608 176.080261,394.744843   C176.080261,391.994598 176.080261,389.244354 176.080261,386.419952   C171.855499,386.172668 168.376541,385.989777 164.900543,385.761993   C151.397751,384.877289 143.403473,376.950439 142.981628,363.423340   C142.607788,351.435669 142.656799,339.431854 142.735336,327.436584   C142.745560,325.873688 143.620789,323.768036 144.815033,322.848846   C153.606689,316.082214 162.581360,309.553375 171.673538,302.819946   C172.929962,304.736725 174.022369,306.393982 175.105576,308.057190   C190.625610,331.887726 205.986603,355.824097 221.743988,379.496613   C227.742432,388.508148 235.694717,395.663666 246.348251,398.978485   C261.857086,403.804047 277.842102,402.690063 293.620605,402.960114   C293.620605,397.034729 293.620605,391.642059 293.620605,386.583344   C290.084412,386.079468 286.917297,385.842804 283.851990,385.153381   C272.035370,382.495789 263.873749,374.537811 257.351044,365.158539   C237.401031,336.471619 217.858673,307.500641 198.319977,278.530701   C197.585464,277.441681 197.889343,274.649536 198.801620,273.605377   C209.760773,261.061859 220.512756,248.294296 232.147430,236.395432   C245.394028,222.848038 258.670502,208.778503 279.569214,207.946335   C279.569214,202.278275 279.569214,196.894974 279.569214,191.782120   C250.467072,191.782120 221.741882,191.782120 193.133789,191.782120   C193.133789,197.430618 193.133789,202.673294 193.133789,207.804993   C196.988922,208.157486 200.472610,208.444305 203.949158,208.800690   C210.581421,209.480591 213.628189,213.511642 211.309952,219.852966   C209.403549,225.067780 207.064468,230.510086 203.531799,234.677094   C189.214813,251.564789 174.400253,268.032196 159.689896,284.584137   C153.819870,291.189026 147.744125,297.611084 141.840302,304.031219   C141.840302,236.924759 141.840302,170.208099 141.840302,103.147873   C121.162384,103.147873 100.353889,103.147873 78.557915,103.146378  z"/>
<path fill="#28263a" opacity="1.000000" stroke="none" d=" M42.531342,1.000000   C41.779888,1.920656 40.693584,3.229611 39.319397,3.703146   C21.528065,9.833907 9.656337,21.770924 3.628002,39.586067   C3.228543,40.766567 2.360024,41.788349 1.354839,42.941978   C1.000000,29.073322 1.000000,15.146646 1.000000,1.000000   C14.686776,1.000000 28.374729,1.000000 42.531342,1.000000  z"/>
<path fill="#28263a" opacity="1.000000" stroke="none" d=" M513.000000,42.531338   C512.078979,41.780167 510.768036,40.694298 510.295929,39.320232   C504.178772,21.515076 492.207672,9.677845 474.412872,3.629528   C473.232666,3.228394 472.211060,2.360594 471.057861,1.354928   C484.926666,1.000000 498.853363,1.000000 513.000000,1.000000   C513.000000,14.686776 513.000000,28.374729 513.000000,42.531338  z"/>
<path fill="#28263a" opacity="1.000000" stroke="none" d=" M1.000009,471.468658   C1.920674,472.220184 3.230561,473.306549 3.703024,474.680847   C9.823093,492.482910 21.782436,504.331970 39.585789,510.371796   C40.766281,510.772278 41.788265,511.639984 42.941990,512.645142   C29.073322,513.000000 15.146646,513.000000 1.000000,513.000000   C1.000000,499.313232 1.000000,485.625275 1.000009,471.468658  z"/>
<path fill="#28263a" opacity="1.000000" stroke="none" d=" M471.468658,513.000000   C472.219879,512.079041 473.305817,510.768951 474.679871,510.296082   C492.477142,504.171295 504.338287,492.224030 510.370911,474.413361   C510.770752,473.232910 511.639526,472.211304 512.645081,471.057892   C513.000000,484.926666 513.000000,498.853363 513.000000,513.000000   C499.313232,513.000000 485.625275,513.000000 471.468658,513.000000  z"/>
<path fill="#f1efa5" opacity="1.000000" stroke="none" d=" M79.051651,103.147125   C100.353889,103.147873 121.162384,103.147873 141.840302,103.147873   C141.840302,170.208099 141.840302,236.924759 141.840302,304.031219   C147.744125,297.611084 153.819870,291.189026 159.689896,284.584137   C174.400253,268.032196 189.214813,251.564789 203.531799,234.677094   C207.064468,230.510086 209.403549,225.067780 211.309952,219.852966   C213.628189,213.511642 210.581421,209.480591 203.949158,208.800690   C200.472610,208.444305 196.988922,208.157486 193.133789,207.804993   C193.133789,202.673294 193.133789,197.430618 193.133789,191.782120   C221.741882,191.782120 250.467072,191.782120 279.569214,191.782120   C279.569214,196.894974 279.569214,202.278275 279.569214,207.946335   C258.670502,208.778503 245.394028,222.848038 232.147430,236.395432   C220.512756,248.294296 209.760773,261.061859 198.801620,273.605377   C197.889343,274.649536 197.585464,277.441681 198.319977,278.530701   C217.858673,307.500641 237.401031,336.471619 257.351044,365.158539   C263.873749,374.537811 272.035370,382.495789 283.851990,385.153381   C286.917297,385.842804 290.084412,386.079468 293.620605,386.583344   C293.620605,391.642059 293.620605,397.034729 293.620605,402.960114   C277.842102,402.690063 261.857086,403.804047 246.348251,398.978485   C235.694717,395.663666 227.742432,388.508148 221.743988,379.496613   C205.986603,355.824097 190.625610,331.887726 175.105576,308.057190   C174.022369,306.393982 172.929962,304.736725 171.673538,302.819946   C162.581360,309.553375 153.606689,316.082214 144.815033,322.848846   C143.620789,323.768036 142.745560,325.873688 142.735336,327.436584   C142.656799,339.431854 142.607788,351.435669 142.981628,363.423340   C143.403473,376.950439 151.397751,384.877289 164.900543,385.761993   C168.376541,385.989777 171.855499,386.172668 176.080261,386.419952   C176.080261,389.244354 176.080261,391.994598 176.080261,394.744843   C176.080261,397.366608 176.080261,399.988403 176.080261,402.790100   C140.566452,402.790100 105.492027,402.790100 70.205444,402.790100   C70.205444,397.319611 70.205444,392.058899 70.205444,386.835205   C76.207504,386.115265 82.187080,385.828644 87.969872,384.608978   C98.017128,382.489960 104.552727,374.343719 105.005646,363.973755   C105.245461,358.482880 105.188553,352.977051 105.189445,347.477997   C105.200157,281.647400 105.205772,215.816788 105.173988,149.986191   C105.172066,146.001328 105.391975,141.897598 104.558960,138.055054   C102.400055,128.096619 95.515068,122.073013 85.206337,120.739952   C80.428513,120.122124 75.583748,120.021957 70.374443,119.659630   C70.374443,114.522057 70.374443,109.130676 70.374443,103.146378   C73.017509,103.146378 75.787712,103.146378 79.051651,103.147125  z"/>
<path fill="#f1efa5" opacity="1.000000" stroke="none" d=" M405.984070,402.845215   C372.179321,402.891968 338.374573,402.940125 304.569824,402.970490   C304.112122,402.970917 303.654205,402.746674 303.122681,402.608002   C303.122681,397.274078 303.122681,392.032623 303.122681,387.028351   C310.097321,386.204102 316.915192,385.965912 323.456757,384.497162   C334.270111,382.069336 339.977936,374.436584 339.991302,363.365448   C340.044220,319.564606 340.066925,275.763611 340.001434,231.962814   C339.982666,219.411072 332.107391,210.623703 319.689941,208.975739   C315.603363,208.433395 311.478516,208.179169 307.098328,207.767548   C307.098328,202.473038 307.098328,197.225784 307.098328,191.688629   C330.240051,191.688629 353.324982,191.688629 377.103668,191.688629   C377.103668,193.471802 377.104065,195.221451 377.103638,196.971100   C377.089996,250.431534 377.072937,303.891968 377.075897,357.352417   C377.075989,359.339935 377.044952,361.370300 377.411560,363.308228   C380.453827,379.390839 386.152161,384.474487 402.630524,385.974030   C403.459137,386.049438 404.289032,386.110352 405.543793,386.758881   C405.974182,392.508209 405.979126,397.676727 405.984070,402.845215  z"/>
<path fill="#f1efa5" opacity="1.000000" stroke="none" d=" M407.990601,163.819748   C401.948456,164.833435 396.526428,163.606674 391.786835,159.554779   C381.190826,150.496216 370.542175,141.499222 359.934845,132.453857   C358.570984,131.290817 357.325104,129.989487 356.336731,129.049210   C345.908539,138.081070 335.897186,147.048737 325.559021,155.622269   C315.232300,164.186279 311.890259,164.953873 296.855743,163.542908   C298.461273,160.207626 299.519196,157.117889 301.278687,154.499588   C312.748871,137.430710 324.330261,120.435783 336.022827,103.518608   C336.942841,102.187477 338.964874,100.873245 340.505646,100.836266   C350.829590,100.588509 361.164154,100.579544 371.489044,100.793709   C373.057953,100.826248 375.162140,102.031723 376.059784,103.348427   C387.118652,119.569839 397.999084,135.912903 408.906494,152.967560   C408.588470,157.080292 408.289551,160.450027 407.990601,163.819748  z"/>
<path fill="#f1efa5" opacity="1.000000" stroke="none" d=" M406.437256,402.922668   C405.979126,397.676727 405.974182,392.508209 405.961121,386.902313   C408.730499,386.464905 411.507965,386.464905 414.634460,386.464905   C414.634460,391.838440 414.634460,397.167877 414.634460,403.000153   C412.062439,403.000153 409.476440,403.000153 406.437256,402.922668  z"/>
<path fill="#f1efa5" opacity="1.000000" stroke="none" d=" M408.425781,163.900818   C408.289551,160.450027 408.588470,157.080292 408.964600,153.303223   C412.271027,155.743332 415.236176,158.704407 413.631500,163.981903   C412.061157,163.981903 410.461060,163.981903 408.425781,163.900818  z"/>
</svg>